  0
SECTION
  2
HEADER
  9
$ACADVER
  1
AC1009
  9
$EXTMIN
 10
0.0
 20
0.0
 30
0.0
  9
$EXTMAX
 10
1000.0
 20
1000.0
 30
0.0
  9
$FILLMODE
 70
 0
  9
$SPLFRAME
 70
 1
  0
ENDSEC
  0
SECTION
  2
TABLES
  0
TABLE
  2
LAYER
 70
1
  0
LAYER
  2
0
 70
     0
 62
     7
  6
CONTINUOUS
  0
ENDTAB
  0
ENDSEC
  0
SECTION
  2
ENTITIES
  0
LINE
  8
0
 62
     0
 10
0.0950846
 20
113.146
 30
0.0
 11
146.004
 21
113.146
 31
0.0
  0
LINE
  8
0
 62
     0
 10
146.004
 20
113.146
 30
0.0
 11
146.004
 21
0.180523
 31
0.0
  0
LINE
  8
0
 62
     0
 10
146.004
 20
0.180523
 30
0.0
 11
0.0950846
 21
0.180523
 31
0.0
  0
LINE
  8
0
 62
     0
 10
0.0950846
 20
0.180523
 30
0.0
 11
0.0950846
 21
113.146
 31
0.0
  0
LINE
  8
0
 62
     0
 10
122.633
 20
13.6536
 30
0.0
 11
132.533
 21
3.75377
 31
0.0
  0
LINE
  8
0
 62
     0
 10
132.533
 20
3.75377
 30
0.0
 11
142.433
 21
13.6536
 31
0.0
  0
LINE
  8
0
 62
     0
 10
142.433
 20
13.6536
 30
0.0
 11
132.533
 21
23.552
 31
0.0
  0
LINE
  8
0
 62
     0
 10
132.533
 20
23.552
 30
0.0
 11
122.633
 21
13.6536
 31
0.0
  0
LINE
  8
0
 62
     0
 10
106.499
 20
23.7298
 30
0.0
 11
118.623
 21
16.7308
 31
0.0
  0
LINE
  8
0
 62
     0
 10
118.623
 20
16.7308
 30
0.0
 11
125.623
 21
28.8548
 31
0.0
  0
LINE
  8
0
 62
     0
 10
125.623
 20
28.8548
 30
0.0
 11
113.498
 21
35.8539
 31
0.0
  0
LINE
  8
0
 62
     0
 10
113.498
 20
35.8539
 30
0.0
 11
106.499
 21
23.7298
 31
0.0
  0
LINE
  8
0
 62
     0
 10
88.3059
 20
29.2888
 30
0.0
 11
101.829
 21
25.6646
 31
0.0
  0
LINE
  8
0
 62
     0
 10
101.829
 20
25.6646
 30
0.0
 11
105.453
 21
39.1873
 31
0.0
  0
LINE
  8
0
 62
     0
 10
105.453
 20
39.1873
 30
0.0
 11
91.9289
 21
42.8113
 31
0.0
  0
LINE
  8
0
 62
     0
 10
91.9289
 20
42.8113
 30
0.0
 11
88.3059
 21
29.2888
 31
0.0
  0
LINE
  8
0
 62
     0
 10
69.2947
 20
43.9469
 30
0.0
 11
83.294
 21
43.9469
 31
0.0
  0
LINE
  8
0
 62
     0
 10
83.294
 20
43.9469
 30
0.0
 11
83.294
 21
29.9475
 31
0.0
  0
LINE
  8
0
 62
     0
 10
83.294
 20
29.9475
 30
0.0
 11
69.2947
 21
29.9475
 31
0.0
  0
LINE
  8
0
 62
     0
 10
69.2947
 20
29.9475
 30
0.0
 11
69.2947
 21
43.9469
 31
0.0
  0
LINE
  8
0
 62
     0
 10
21.6697
 20
53.4719
 30
0.0
 11
35.669
 21
53.4719
 31
0.0
  0
LINE
  8
0
 62
     0
 10
35.669
 20
53.4719
 30
0.0
 11
35.669
 21
39.4727
 31
0.0
  0
LINE
  8
0
 62
     0
 10
35.669
 20
39.4727
 30
0.0
 11
21.6697
 21
39.4727
 31
0.0
  0
LINE
  8
0
 62
     0
 10
21.6697
 20
39.4727
 30
0.0
 11
21.6697
 21
53.4719
 31
0.0
  0
LINE
  8
0
 62
     0
 10
97.8697
 20
60.6157
 30
0.0
 11
111.869
 21
60.6157
 31
0.0
  0
LINE
  8
0
 62
     0
 10
111.869
 20
60.6157
 30
0.0
 11
111.869
 21
46.6164
 31
0.0
  0
LINE
  8
0
 62
     0
 10
111.869
 20
46.6164
 30
0.0
 11
97.8697
 21
46.6164
 31
0.0
  0
LINE
  8
0
 62
     0
 10
97.8697
 20
46.6164
 30
0.0
 11
97.8697
 21
60.6157
 31
0.0
  0
LINE
  8
0
 62
     0
 10
78.8197
 20
62.9969
 30
0.0
 11
92.819
 21
62.9969
 31
0.0
  0
LINE
  8
0
 62
     0
 10
92.819
 20
62.9969
 30
0.0
 11
92.819
 21
48.9977
 31
0.0
  0
LINE
  8
0
 62
     0
 10
92.819
 20
48.9977
 30
0.0
 11
78.8197
 21
48.9977
 31
0.0
  0
LINE
  8
0
 62
     0
 10
78.8197
 20
48.9977
 30
0.0
 11
78.8197
 21
62.9969
 31
0.0
  0
LINE
  8
0
 62
     0
 10
40.7197
 20
62.9969
 30
0.0
 11
54.719
 21
62.9969
 31
0.0
  0
LINE
  8
0
 62
     0
 10
54.719
 20
62.9969
 30
0.0
 11
54.719
 21
48.9977
 31
0.0
  0
LINE
  8
0
 62
     0
 10
54.719
 20
48.9977
 30
0.0
 11
40.7197
 21
48.9977
 31
0.0
  0
LINE
  8
0
 62
     0
 10
40.7197
 20
48.9977
 30
0.0
 11
40.7197
 21
62.9969
 31
0.0
  0
LINE
  8
0
 62
     0
 10
59.7697
 20
67.7594
 30
0.0
 11
73.769
 21
67.7594
 31
0.0
  0
LINE
  8
0
 62
     0
 10
73.769
 20
67.7594
 30
0.0
 11
73.769
 21
53.7602
 31
0.0
  0
LINE
  8
0
 62
     0
 10
73.769
 20
53.7602
 30
0.0
 11
59.7697
 21
53.7602
 31
0.0
  0
LINE
  8
0
 62
     0
 10
59.7697
 20
53.7602
 30
0.0
 11
59.7697
 21
67.7594
 31
0.0
  0
LINE
  8
0
 62
     0
 10
21.6697
 20
72.5219
 30
0.0
 11
35.669
 21
72.5219
 31
0.0
  0
LINE
  8
0
 62
     0
 10
35.669
 20
72.5219
 30
0.0
 11
35.669
 21
58.5227
 31
0.0
  0
LINE
  8
0
 62
     0
 10
35.669
 20
58.5227
 30
0.0
 11
21.6697
 21
58.5227
 31
0.0
  0
LINE
  8
0
 62
     0
 10
21.6697
 20
58.5227
 30
0.0
 11
21.6697
 21
72.5219
 31
0.0
  0
LINE
  8
0
 62
     0
 10
97.8697
 20
79.6657
 30
0.0
 11
111.869
 21
79.6657
 31
0.0
  0
LINE
  8
0
 62
     0
 10
111.869
 20
79.6657
 30
0.0
 11
111.869
 21
65.6664
 31
0.0
  0
LINE
  8
0
 62
     0
 10
111.869
 20
65.6664
 30
0.0
 11
97.8697
 21
65.6664
 31
0.0
  0
LINE
  8
0
 62
     0
 10
97.8697
 20
65.6664
 30
0.0
 11
97.8697
 21
79.6657
 31
0.0
  0
LINE
  8
0
 62
     0
 10
78.8197
 20
82.0469
 30
0.0
 11
92.819
 21
82.0469
 31
0.0
  0
LINE
  8
0
 62
     0
 10
92.819
 20
82.0469
 30
0.0
 11
92.819
 21
68.0477
 31
0.0
  0
LINE
  8
0
 62
     0
 10
92.819
 20
68.0477
 30
0.0
 11
78.8197
 21
68.0477
 31
0.0
  0
LINE
  8
0
 62
     0
 10
78.8197
 20
68.0477
 30
0.0
 11
78.8197
 21
82.0469
 31
0.0
  0
LINE
  8
0
 62
     0
 10
40.7197
 20
82.0469
 30
0.0
 11
54.719
 21
82.0469
 31
0.0
  0
LINE
  8
0
 62
     0
 10
54.719
 20
82.0469
 30
0.0
 11
54.719
 21
68.0477
 31
0.0
  0
LINE
  8
0
 62
     0
 10
54.719
 20
68.0477
 30
0.0
 11
40.7197
 21
68.0477
 31
0.0
  0
LINE
  8
0
 62
     0
 10
40.7197
 20
68.0477
 30
0.0
 11
40.7197
 21
82.0469
 31
0.0
  0
LINE
  8
0
 62
     0
 10
59.7697
 20
86.8094
 30
0.0
 11
73.769
 21
86.8094
 31
0.0
  0
LINE
  8
0
 62
     0
 10
73.769
 20
86.8094
 30
0.0
 11
73.769
 21
72.8102
 31
0.0
  0
LINE
  8
0
 62
     0
 10
73.769
 20
72.8102
 30
0.0
 11
59.7697
 21
72.8102
 31
0.0
  0
LINE
  8
0
 62
     0
 10
59.7697
 20
72.8102
 30
0.0
 11
59.7697
 21
86.8094
 31
0.0
  0
LINE
  8
0
 62
     0
 10
21.6697
 20
91.5719
 30
0.0
 11
35.669
 21
91.5719
 31
0.0
  0
LINE
  8
0
 62
     0
 10
35.669
 20
91.5719
 30
0.0
 11
35.669
 21
77.5727
 31
0.0
  0
LINE
  8
0
 62
     0
 10
35.669
 20
77.5727
 30
0.0
 11
21.6697
 21
77.5727
 31
0.0
  0
LINE
  8
0
 62
     0
 10
21.6697
 20
77.5727
 30
0.0
 11
21.6697
 21
91.5719
 31
0.0
  0
LINE
  8
0
 62
     0
 10
97.8697
 20
98.7157
 30
0.0
 11
111.869
 21
98.7157
 31
0.0
  0
LINE
  8
0
 62
     0
 10
111.869
 20
98.7157
 30
0.0
 11
111.869
 21
84.7164
 31
0.0
  0
LINE
  8
0
 62
     0
 10
111.869
 20
84.7164
 30
0.0
 11
97.8697
 21
84.7164
 31
0.0
  0
LINE
  8
0
 62
     0
 10
97.8697
 20
84.7164
 30
0.0
 11
97.8697
 21
98.7157
 31
0.0
  0
LINE
  8
0
 62
     0
 10
78.8197
 20
101.097
 30
0.0
 11
92.819
 21
101.097
 31
0.0
  0
LINE
  8
0
 62
     0
 10
92.819
 20
101.097
 30
0.0
 11
92.819
 21
87.0977
 31
0.0
  0
LINE
  8
0
 62
     0
 10
92.819
 20
87.0977
 30
0.0
 11
78.8197
 21
87.0977
 31
0.0
  0
LINE
  8
0
 62
     0
 10
78.8197
 20
87.0977
 30
0.0
 11
78.8197
 21
101.097
 31
0.0
  0
LINE
  8
0
 62
     0
 10
40.7197
 20
101.097
 30
0.0
 11
54.719
 21
101.097
 31
0.0
  0
LINE
  8
0
 62
     0
 10
54.719
 20
101.097
 30
0.0
 11
54.719
 21
87.0977
 31
0.0
  0
LINE
  8
0
 62
     0
 10
54.719
 20
87.0977
 30
0.0
 11
40.7197
 21
87.0977
 31
0.0
  0
LINE
  8
0
 62
     0
 10
40.7197
 20
87.0977
 30
0.0
 11
40.7197
 21
101.097
 31
0.0
  0
LINE
  8
0
 62
     0
 10
59.7697
 20
105.859
 30
0.0
 11
73.769
 21
105.859
 31
0.0
  0
LINE
  8
0
 62
     0
 10
73.769
 20
105.859
 30
0.0
 11
73.769
 21
91.8602
 31
0.0
  0
LINE
  8
0
 62
     0
 10
73.769
 20
91.8602
 30
0.0
 11
59.7697
 21
91.8602
 31
0.0
  0
LINE
  8
0
 62
     0
 10
59.7697
 20
91.8602
 30
0.0
 11
59.7697
 21
105.859
 31
0.0
  0
ENDSEC
  0
EOF
