%TF.GenerationSoftware,KiCad,Pcbnew,(5.99.0-10697-g71f40bd67c)*%
%TF.CreationDate,2021-06-15T14:06:52+02:00*%
%TF.ProjectId,bottom,626f7474-6f6d-42e6-9b69-6361645f7063,rev?*%
%TF.SameCoordinates,Original*%
%TF.FileFunction,Profile,NP*%
%FSLAX46Y46*%
G04 Gerber Fmt 4.6, Leading zero omitted, Abs format (unit mm)*
G04 Created by KiCad (PCBNEW (5.99.0-10697-g71f40bd67c)) date 2021-06-15 14:06:52*
%MOMM*%
%LPD*%
G01*
G04 APERTURE LIST*
%TA.AperFunction,Profile*%
%ADD10C,0.100000*%
%TD*%
G04 APERTURE END LIST*
D10*
X164200000Y-36151300D02*
X164200000Y-33770000D01*
X145150000Y-33770000D02*
X145150000Y-29008000D01*
X126100000Y-29008000D02*
X145150000Y-29008000D01*
X78525350Y-48295100D02*
X78525350Y-94394300D01*
X83525350Y-43295100D02*
X78525350Y-48295100D01*
X214115477Y-123213206D02*
X201387959Y-135940943D01*
X210615477Y-59294300D02*
X210615477Y-83395100D01*
X85025351Y-83395100D02*
G75*
G02*
X82025349Y-83395100I-1500001J0D01*
G01*
X207615477Y-59294300D02*
G75*
G02*
X210615477Y-59294300I1500000J0D01*
G01*
X85125350Y-48295100D02*
G75*
G03*
X85125350Y-48295100I-1600000J0D01*
G01*
X172372080Y-113724744D02*
X154442112Y-108919500D01*
X107050000Y-43295100D02*
X107050000Y-33770000D01*
X207615477Y-59294300D02*
X207615477Y-83395100D01*
X107050000Y-43295100D02*
X83525350Y-43295100D01*
X188457277Y-123010483D02*
X172372080Y-113724744D01*
X210715477Y-94394300D02*
G75*
G03*
X210715477Y-94394300I-1600000J0D01*
G01*
X214115477Y-123213206D02*
X214115477Y-41151300D01*
X210715477Y-48295100D02*
G75*
G03*
X210715477Y-48295100I-1600000J0D01*
G01*
X164200000Y-33770000D02*
X145150000Y-33770000D01*
X85025349Y-59294300D02*
X85025349Y-83395100D01*
X82025350Y-59294300D02*
X82025350Y-83395100D01*
X154442112Y-108919500D02*
X136150350Y-108919500D01*
X107050000Y-33770000D02*
X126100000Y-33770000D01*
X210615477Y-83395100D02*
G75*
G02*
X207615477Y-83395100I-1500000J0D01*
G01*
X125574650Y-99394300D02*
X136150350Y-108919500D01*
X83525350Y-99394300D02*
X125574650Y-99394300D01*
X85125350Y-94394300D02*
G75*
G03*
X85125350Y-94394300I-1600000J0D01*
G01*
X209115477Y-36151300D02*
X164200000Y-36151300D01*
X214115477Y-41151300D02*
X209115477Y-36151300D01*
X78525350Y-94394300D02*
X83525350Y-99394300D01*
X82025350Y-59294300D02*
G75*
G02*
X85025350Y-59294300I1500000J0D01*
G01*
X201387959Y-135940943D02*
X188457277Y-123010483D01*
X126100000Y-33770000D02*
X126100000Y-29008000D01*
X127522976Y-94394300D02*
G75*
G03*
X127522976Y-94394300I-1948326J0D01*
G01*
M02*
