%TF.GenerationSoftware,KiCad,Pcbnew,(5.99.0-10697-g71f40bd67c)*%
%TF.CreationDate,2021-06-16T08:39:26+02:00*%
%TF.ProjectId,switchplate,73776974-6368-4706-9c61-74652e6b6963,rev?*%
%TF.SameCoordinates,Original*%
%TF.FileFunction,Profile,NP*%
%FSLAX46Y46*%
G04 Gerber Fmt 4.6, Leading zero omitted, Abs format (unit mm)*
G04 Created by KiCad (PCBNEW (5.99.0-10697-g71f40bd67c)) date 2021-06-16 08:39:26*
%MOMM*%
%LPD*%
G01*
G04 APERTURE LIST*
%TA.AperFunction,Profile*%
%ADD10C,0.100000*%
%TD*%
G04 APERTURE END LIST*
D10*
X201040827Y-73287500D02*
X201040827Y-97388300D01*
X204040827Y-73287500D02*
X204040827Y-97388300D01*
X75450700Y-73287500D02*
X75450700Y-97388300D01*
X78450699Y-73287500D02*
X78450699Y-97388300D01*
X71950700Y-108387500D02*
X78950699Y-115387500D01*
X78950699Y-55288300D02*
X71950700Y-62288300D01*
X71950700Y-62288300D02*
X71950700Y-108387500D01*
X207540827Y-55144500D02*
X200540827Y-48144500D01*
X207540827Y-140034858D02*
X207540827Y-55144500D01*
X207540827Y-140034858D02*
X194813333Y-152762569D01*
X194813333Y-152762569D02*
X180654641Y-138604121D01*
X180654641Y-138604121D02*
X165025464Y-129581636D01*
X165025464Y-129581636D02*
X147604108Y-124912700D01*
X147604108Y-124912700D02*
X128807804Y-124912700D01*
X118232104Y-115387500D02*
X128807804Y-124912700D01*
X78950699Y-115387500D02*
X118232104Y-115387500D01*
X98475350Y-55288300D02*
X78950699Y-55288300D01*
X98475350Y-55288300D02*
X98475350Y-45763200D01*
X98475350Y-45763200D02*
X117525350Y-45763200D01*
X117525350Y-45763200D02*
X117525350Y-41001200D01*
X117525350Y-41001200D02*
X140575350Y-41001200D01*
X122050700Y-59000000D02*
X122050700Y-45001200D01*
X136050000Y-59000000D02*
X122050700Y-59000000D01*
X136050000Y-45001200D02*
X136050000Y-59000000D01*
X122050700Y-45001200D02*
X136050000Y-45001200D01*
X103000700Y-63762500D02*
X103000700Y-49763200D01*
X117000000Y-63762500D02*
X103000700Y-63762500D01*
X117000000Y-49763200D02*
X117000000Y-63762500D01*
X103000700Y-49763200D02*
X117000000Y-49763200D01*
X141100700Y-63762500D02*
X141100700Y-49763200D01*
X155100000Y-63762500D02*
X141100700Y-63762500D01*
X155100000Y-49763200D02*
X155100000Y-63762500D01*
X141100700Y-49763200D02*
X155100000Y-49763200D01*
X160150700Y-66143800D02*
X160150700Y-52144500D01*
X174150000Y-66143800D02*
X160150700Y-66143800D01*
X174150000Y-52144500D02*
X174150000Y-66143800D01*
X160150700Y-52144500D02*
X174150000Y-52144500D01*
X83950700Y-73287500D02*
X83950700Y-59288300D01*
X97950000Y-73287500D02*
X83950700Y-73287500D01*
X97950000Y-59288300D02*
X97950000Y-73287500D01*
X83950700Y-59288300D02*
X97950000Y-59288300D01*
X122050700Y-78050000D02*
X122050700Y-64050800D01*
X136050000Y-78050000D02*
X122050700Y-78050000D01*
X136050000Y-64050800D02*
X136050000Y-78050000D01*
X122050700Y-64050800D02*
X136050000Y-64050800D01*
X103000700Y-82812500D02*
X103000700Y-68813300D01*
X117000000Y-82812500D02*
X103000700Y-82812500D01*
X117000000Y-68813300D02*
X117000000Y-82812500D01*
X103000700Y-68813300D02*
X117000000Y-68813300D01*
X141100700Y-82812500D02*
X141100700Y-68813300D01*
X155100000Y-82812500D02*
X141100700Y-82812500D01*
X155100000Y-68813300D02*
X155100000Y-82812500D01*
X141100700Y-68813300D02*
X155100000Y-68813300D01*
X160150700Y-85193801D02*
X160150700Y-71194500D01*
X174150000Y-85193801D02*
X160150700Y-85193801D01*
X174150000Y-71194500D02*
X174150000Y-85193801D01*
X160150700Y-71194500D02*
X174150000Y-71194500D01*
X83950700Y-92337500D02*
X83950700Y-78338300D01*
X97950000Y-92337500D02*
X83950700Y-92337500D01*
X97950000Y-78338300D02*
X97950000Y-92337500D01*
X83950700Y-78338300D02*
X97950000Y-78338300D01*
X122050700Y-97100000D02*
X122050700Y-83100800D01*
X136050000Y-97100000D02*
X122050700Y-97100000D01*
X136050000Y-83100800D02*
X136050000Y-97100000D01*
X122050700Y-83100800D02*
X136050000Y-83100800D01*
X103000700Y-101862500D02*
X103000700Y-87863300D01*
X117000000Y-101862500D02*
X103000700Y-101862500D01*
X117000000Y-87863300D02*
X117000000Y-101862500D01*
X103000700Y-87863300D02*
X117000000Y-87863300D01*
X141100700Y-101862500D02*
X141100700Y-87863300D01*
X155100000Y-101862500D02*
X141100700Y-101862500D01*
X155100000Y-87863300D02*
X155100000Y-101862500D01*
X141100700Y-87863300D02*
X155100000Y-87863300D01*
X160150700Y-104243800D02*
X160150700Y-90244500D01*
X174150000Y-104243800D02*
X160150700Y-104243800D01*
X174150000Y-90244500D02*
X174150000Y-104243800D01*
X160150700Y-90244500D02*
X174150000Y-90244500D01*
X83950700Y-111387500D02*
X83950700Y-97388300D01*
X97950000Y-111387500D02*
X83950700Y-111387500D01*
X97950000Y-97388300D02*
X97950000Y-111387500D01*
X83950700Y-97388300D02*
X97950000Y-97388300D01*
X131575700Y-120912700D02*
X131575700Y-106913300D01*
X145575000Y-120912700D02*
X131575700Y-120912700D01*
X145575000Y-106913300D02*
X145575000Y-120912700D01*
X131575700Y-106913300D02*
X145575000Y-106913300D01*
X154210103Y-108048487D02*
X150586134Y-121570727D01*
X167734086Y-111672924D02*
X154210103Y-108048487D01*
X164110117Y-125195164D02*
X167734086Y-111672924D01*
X150586134Y-121570727D02*
X164110117Y-125195164D01*
X175778456Y-115005510D02*
X168779206Y-127129943D01*
X187903249Y-122004967D02*
X175778456Y-115005510D01*
X180904000Y-134129401D02*
X187903249Y-122004967D01*
X168779206Y-127129943D02*
X180904000Y-134129401D01*
X194813115Y-127307315D02*
X184914000Y-137206600D01*
X204712400Y-137206431D02*
X194813115Y-127307315D01*
X194813285Y-147105716D02*
X204712400Y-137206431D01*
X184914000Y-137206600D02*
X194813285Y-147105716D01*
X140575350Y-45763200D02*
X140575350Y-41001200D01*
X159625350Y-45763200D02*
X140575350Y-45763200D01*
X159625350Y-48144500D02*
X159625350Y-45763200D01*
X200540827Y-48144500D02*
X159625350Y-48144500D01*
X204040827Y-97388300D02*
G75*
G02*
X201040827Y-97388300I-1500000J0D01*
G01*
X201040827Y-73287500D02*
G75*
G02*
X204040827Y-73287500I1500000J0D01*
G01*
X78450701Y-97388300D02*
G75*
G02*
X75450699Y-97388300I-1500001J0D01*
G01*
X75450700Y-73287500D02*
G75*
G02*
X78450700Y-73287500I1500000J0D01*
G01*
X120948326Y-108387500D02*
G75*
G03*
X120948326Y-108387500I-1948326J0D01*
G01*
X204140827Y-108387500D02*
G75*
G03*
X204140827Y-108387500I-1600000J0D01*
G01*
X204140827Y-62288300D02*
G75*
G03*
X204140827Y-62288300I-1600000J0D01*
G01*
X78550700Y-62288300D02*
G75*
G03*
X78550700Y-62288300I-1600000J0D01*
G01*
X78550700Y-108387500D02*
G75*
G03*
X78550700Y-108387500I-1600000J0D01*
G01*
M02*
