%TF.GenerationSoftware,KiCad,Pcbnew,(5.99.0-10697-g71f40bd67c)*%
%TF.CreationDate,2021-06-16T08:39:25+02:00*%
%TF.ProjectId,switchplate,73776974-6368-4706-9c61-74652e6b6963,rev?*%
%TF.SameCoordinates,Original*%
%TF.FileFunction,Soldermask,Bot*%
%TF.FilePolarity,Negative*%
%FSLAX46Y46*%
G04 Gerber Fmt 4.6, Leading zero omitted, Abs format (unit mm)*
G04 Created by KiCad (PCBNEW (5.99.0-10697-g71f40bd67c)) date 2021-06-16 08:39:25*
%MOMM*%
%LPD*%
G01*
G04 APERTURE LIST*
%ADD10C,0.037120*%
%ADD11C,0.150000*%
G04 APERTURE END LIST*
D10*
X195443993Y-53976284D02*
G75*
G02*
X196252675Y-54371914I404341J-197815D01*
G01*
X188896494Y-60072764D02*
X186303807Y-53748995D01*
D11*
X118000000Y-103000000D02*
X102000000Y-103000000D01*
X102000000Y-103000000D02*
X102000000Y-87000000D01*
X102000000Y-87000000D02*
X118000000Y-87000000D01*
X118000000Y-87000000D02*
X118000000Y-103000000D01*
G36*
X118000000Y-103000000D02*
G01*
X102000000Y-103000000D01*
X102000000Y-87000000D01*
X118000000Y-87000000D01*
X118000000Y-103000000D01*
G37*
X118000000Y-103000000D02*
X102000000Y-103000000D01*
X102000000Y-87000000D01*
X118000000Y-87000000D01*
X118000000Y-103000000D01*
X194928930Y-148071068D02*
X183615225Y-136757357D01*
X183615225Y-136757357D02*
X194928932Y-125443648D01*
X194928932Y-125443648D02*
X206242642Y-136757357D01*
X206242642Y-136757357D02*
X194928930Y-148071068D01*
G36*
X206242642Y-136757357D02*
G01*
X194928930Y-148071068D01*
X183615225Y-136757357D01*
X194928932Y-125443648D01*
X206242642Y-136757357D01*
G37*
X206242642Y-136757357D02*
X194928930Y-148071068D01*
X183615225Y-136757357D01*
X194928932Y-125443648D01*
X206242642Y-136757357D01*
D10*
X185253273Y-64777003D02*
X178418393Y-64768776D01*
X191473471Y-52996995D02*
G75*
G02*
X192367274Y-53102552I445644J-63425D01*
G01*
X178929059Y-61611435D02*
G75*
G02*
X179228131Y-60762293I149536J424571D01*
G01*
X190797438Y-66395373D02*
G75*
G02*
X190131694Y-66735998I-447022J52791D01*
G01*
X196252675Y-54371914D02*
X197249956Y-54950924D01*
X185473564Y-54088584D02*
G75*
G02*
X186303807Y-53748995I430914J131184D01*
G01*
X180755279Y-57952069D02*
G75*
G02*
X181318605Y-57249815I281663J351127D01*
G01*
X191759614Y-65625319D02*
G75*
G02*
X191695696Y-66370379I-281664J-351108D01*
G01*
X191846282Y-64994738D02*
G75*
G02*
X192151610Y-65677452I-76104J-443668D01*
G01*
X190104203Y-64855320D02*
X193500009Y-53318749D01*
X190163233Y-66341807D02*
X190857590Y-65376759D01*
X197980725Y-55476716D02*
X198866620Y-56214967D01*
X193988876Y-61024759D02*
X197980725Y-55476716D01*
X191377967Y-66134398D02*
G75*
G02*
X190960967Y-66755434I-416432J-170900D01*
G01*
X192433654Y-60129698D02*
X194363639Y-53572959D01*
X188069006Y-60428160D02*
X184454047Y-54627494D01*
D11*
X137000000Y-79000000D02*
X121000000Y-79000000D01*
X121000000Y-79000000D02*
X121000000Y-63000000D01*
X121000000Y-63000000D02*
X137000000Y-63000000D01*
X137000000Y-63000000D02*
X137000000Y-79000000D01*
G36*
X137000000Y-79000000D02*
G01*
X121000000Y-79000000D01*
X121000000Y-63000000D01*
X137000000Y-63000000D01*
X137000000Y-79000000D01*
G37*
X137000000Y-79000000D02*
X121000000Y-79000000D01*
X121000000Y-63000000D01*
X137000000Y-63000000D01*
X137000000Y-79000000D01*
D10*
X180124864Y-58917672D02*
X180755283Y-57952061D01*
X194363639Y-53572959D02*
X195443990Y-53976291D01*
D11*
X156000000Y-84000000D02*
X140000000Y-84000000D01*
X140000000Y-84000000D02*
X140000000Y-68000000D01*
X140000000Y-68000000D02*
X156000000Y-68000000D01*
X156000000Y-68000000D02*
X156000000Y-84000000D01*
G36*
X156000000Y-84000000D02*
G01*
X140000000Y-84000000D01*
X140000000Y-68000000D01*
X156000000Y-68000000D01*
X156000000Y-84000000D01*
G37*
X156000000Y-84000000D02*
X140000000Y-84000000D01*
X140000000Y-68000000D01*
X156000000Y-68000000D01*
X156000000Y-84000000D01*
D10*
X191200206Y-66254020D02*
X190977681Y-65258342D01*
X189278448Y-65682113D02*
X178417315Y-65669048D01*
X185267599Y-65677291D02*
X178528383Y-66816866D01*
X191846287Y-64994735D02*
X191334112Y-64906880D01*
D11*
X99000000Y-112500000D02*
X83000000Y-112500000D01*
X83000000Y-112500000D02*
X83000000Y-96500000D01*
X83000000Y-96500000D02*
X99000000Y-96500000D01*
X99000000Y-96500000D02*
X99000000Y-112500000D01*
G36*
X99000000Y-112500000D02*
G01*
X83000000Y-112500000D01*
X83000000Y-96500000D01*
X99000000Y-96500000D01*
X99000000Y-112500000D01*
G37*
X99000000Y-112500000D02*
X83000000Y-112500000D01*
X83000000Y-96500000D01*
X99000000Y-96500000D01*
X99000000Y-112500000D01*
D10*
X189335706Y-65613108D02*
X198866620Y-56214967D01*
X178501637Y-63618595D02*
G75*
G02*
X178653871Y-62731301I76117J443647D01*
G01*
D11*
X137000000Y-98000000D02*
X121000000Y-98000000D01*
X121000000Y-98000000D02*
X121000000Y-82000000D01*
X121000000Y-82000000D02*
X137000000Y-82000000D01*
X137000000Y-82000000D02*
X137000000Y-98000000D01*
G36*
X137000000Y-98000000D02*
G01*
X121000000Y-98000000D01*
X121000000Y-82000000D01*
X137000000Y-82000000D01*
X137000000Y-98000000D01*
G37*
X137000000Y-98000000D02*
X121000000Y-98000000D01*
X121000000Y-82000000D01*
X137000000Y-82000000D01*
X137000000Y-98000000D01*
D10*
X191004802Y-66341726D02*
X190950688Y-65284960D01*
X191565674Y-59890272D02*
X192367274Y-53102552D01*
X191004801Y-66341724D02*
G75*
G02*
X190405700Y-66789306I-449544J-23021D01*
G01*
X188294886Y-53188611D02*
X189434035Y-53019438D01*
X190171285Y-64789174D02*
X197249956Y-54950924D01*
X190370600Y-66395416D02*
X190879519Y-65355137D01*
X190843719Y-65022619D02*
G75*
G03*
X190843719Y-65022619I-270942J0D01*
G01*
X191853171Y-65208826D02*
G75*
G02*
X192042971Y-65929155I-149532J-424570D01*
G01*
X178418393Y-64768776D02*
X178501634Y-63618602D01*
X189838146Y-65117666D02*
X182102215Y-56403775D01*
X189967818Y-66254138D02*
G75*
G02*
X189335706Y-65613108I-316056J320515D01*
G01*
X189945549Y-65011764D02*
X185473558Y-54088587D01*
X191803562Y-64784861D02*
G75*
G02*
X192219200Y-65406566I-529J-450143D01*
G01*
X189990213Y-64967724D02*
X187402711Y-53387322D01*
X192367274Y-53102552D02*
X193500009Y-53318749D01*
D11*
X118000000Y-64750000D02*
X102000000Y-64750000D01*
X102000000Y-64750000D02*
X102000000Y-48750000D01*
X102000000Y-48750000D02*
X118000000Y-48750000D01*
X118000000Y-48750000D02*
X118000000Y-64750000D01*
G36*
X118000000Y-64750000D02*
G01*
X102000000Y-64750000D01*
X102000000Y-48750000D01*
X118000000Y-48750000D01*
X118000000Y-64750000D01*
G37*
X118000000Y-64750000D02*
X102000000Y-64750000D01*
X102000000Y-48750000D01*
X118000000Y-48750000D01*
X118000000Y-64750000D01*
D10*
X187402710Y-53387326D02*
G75*
G02*
X188294886Y-53188611I478004J-43936D01*
G01*
X197249957Y-54950918D02*
G75*
G02*
X197980725Y-55476716I365384J-262899D01*
G01*
X191803562Y-64784865D02*
X191458262Y-64784458D01*
D11*
X99000000Y-74500000D02*
X83000000Y-74500000D01*
X83000000Y-74500000D02*
X83000000Y-58500000D01*
X83000000Y-58500000D02*
X99000000Y-58500000D01*
X99000000Y-58500000D02*
X99000000Y-74500000D01*
G36*
X99000000Y-74500000D02*
G01*
X83000000Y-74500000D01*
X83000000Y-58500000D01*
X99000000Y-58500000D01*
X99000000Y-74500000D01*
G37*
X99000000Y-74500000D02*
X83000000Y-74500000D01*
X83000000Y-58500000D01*
X99000000Y-58500000D01*
X99000000Y-74500000D01*
D10*
X189770808Y-65184070D02*
X180755283Y-57952061D01*
X178528383Y-66816866D02*
X178417315Y-65669048D01*
X189776305Y-59861175D02*
X188294886Y-53188611D01*
X189587110Y-65365206D02*
X178929064Y-61611433D01*
D11*
X175000000Y-105000000D02*
X159000000Y-105000000D01*
X159000000Y-105000000D02*
X159000000Y-89000000D01*
X159000000Y-89000000D02*
X175000000Y-89000000D01*
X175000000Y-89000000D02*
X175000000Y-105000000D01*
G36*
X175000000Y-105000000D02*
G01*
X159000000Y-105000000D01*
X159000000Y-89000000D01*
X175000000Y-89000000D01*
X175000000Y-105000000D01*
G37*
X175000000Y-105000000D02*
X159000000Y-105000000D01*
X159000000Y-89000000D01*
X175000000Y-89000000D01*
X175000000Y-105000000D01*
X99000000Y-93500000D02*
X83000000Y-93500000D01*
X83000000Y-93500000D02*
X83000000Y-77500000D01*
X83000000Y-77500000D02*
X99000000Y-77500000D01*
X99000000Y-77500000D02*
X99000000Y-93500000D01*
G36*
X99000000Y-93500000D02*
G01*
X83000000Y-93500000D01*
X83000000Y-77500000D01*
X99000000Y-77500000D01*
X99000000Y-93500000D01*
G37*
X99000000Y-93500000D02*
X83000000Y-93500000D01*
X83000000Y-77500000D01*
X99000000Y-77500000D01*
X99000000Y-93500000D01*
D10*
X182102214Y-56403786D02*
G75*
G02*
X182775458Y-55806089I337236J298157D01*
G01*
X189689332Y-65264415D02*
X179687458Y-59704541D01*
X185390322Y-63887093D02*
X178653871Y-62731301D01*
X191823999Y-65421028D02*
X191177279Y-65061531D01*
D11*
X181499999Y-135160255D02*
X167643595Y-127160253D01*
X167643595Y-127160253D02*
X175643592Y-113303845D01*
X175643592Y-113303845D02*
X189499999Y-121303845D01*
X189499999Y-121303845D02*
X181499999Y-135160255D01*
G36*
X189499999Y-121303845D02*
G01*
X181499999Y-135160255D01*
X167643595Y-127160253D01*
X175643592Y-113303845D01*
X189499999Y-121303845D01*
G37*
X189499999Y-121303845D02*
X181499999Y-135160255D01*
X167643595Y-127160253D01*
X175643592Y-113303845D01*
X189499999Y-121303845D01*
D10*
X191661839Y-65815872D02*
X191078570Y-65158858D01*
X191377966Y-66134400D02*
X191006693Y-65229735D01*
D11*
X156000000Y-102500000D02*
X140000000Y-102500000D01*
X140000000Y-102500000D02*
X140000000Y-86500000D01*
X140000000Y-86500000D02*
X156000000Y-86500000D01*
X156000000Y-86500000D02*
X156000000Y-102500000D01*
G36*
X156000000Y-102500000D02*
G01*
X140000000Y-102500000D01*
X140000000Y-86500000D01*
X156000000Y-86500000D01*
X156000000Y-102500000D01*
G37*
X156000000Y-102500000D02*
X140000000Y-102500000D01*
X140000000Y-86500000D01*
X156000000Y-86500000D01*
X156000000Y-102500000D01*
D10*
X191533453Y-65987294D02*
G75*
G02*
X191226464Y-66669214I-382019J-238082D01*
G01*
X191823997Y-65421030D02*
G75*
G02*
X191883955Y-66170771I-216604J-394590D01*
G01*
X179228131Y-60762293D02*
X179687458Y-59704541D01*
X183689999Y-55103642D02*
G75*
G02*
X184454047Y-54627494I382749J236910D01*
G01*
X182775458Y-55806089D02*
X183690006Y-55103644D01*
X181318605Y-57249815D02*
X182102215Y-56403775D01*
X191759612Y-65625323D02*
X191123240Y-65114815D01*
X190370602Y-66395416D02*
G75*
G02*
X189629621Y-66496430I-404342J197810D01*
G01*
X186303807Y-53748995D02*
X187402711Y-53387322D01*
X189201705Y-65925099D02*
X178678503Y-67704611D01*
D11*
X175250000Y-86000000D02*
X159250000Y-86000000D01*
X159250000Y-86000000D02*
X159250000Y-70000000D01*
X159250000Y-70000000D02*
X175250000Y-70000000D01*
X175250000Y-70000000D02*
X175250000Y-86000000D01*
G36*
X175250000Y-86000000D02*
G01*
X159250000Y-86000000D01*
X159250000Y-70000000D01*
X175250000Y-70000000D01*
X175250000Y-86000000D01*
G37*
X175250000Y-86000000D02*
X159250000Y-86000000D01*
X159250000Y-70000000D01*
X175250000Y-70000000D01*
X175250000Y-86000000D01*
X164984226Y-126272972D02*
X149529414Y-122131867D01*
X149529414Y-122131867D02*
X153670517Y-106677052D01*
X153670517Y-106677052D02*
X169125331Y-110818155D01*
X169125331Y-110818155D02*
X164984226Y-126272972D01*
G36*
X169125331Y-110818155D02*
G01*
X164984226Y-126272972D01*
X149529414Y-122131867D01*
X153670517Y-106677052D01*
X169125331Y-110818155D01*
G37*
X169125331Y-110818155D02*
X164984226Y-126272972D01*
X149529414Y-122131867D01*
X153670517Y-106677052D01*
X169125331Y-110818155D01*
D10*
X189434040Y-53019439D02*
G75*
G02*
X190320672Y-52974034I447499J-58981D01*
G01*
X190320672Y-52974034D02*
X191473466Y-52996998D01*
X190163231Y-66341808D02*
G75*
G02*
X189415813Y-66316966I-365384J262895D01*
G01*
X184454047Y-54627494D02*
X185473558Y-54088587D01*
X190584027Y-66413447D02*
G75*
G02*
X189870527Y-66637444I-431816J127109D01*
G01*
X191726214Y-64585146D02*
G75*
G02*
X192240329Y-65128218I75056J-443833D01*
G01*
X186098796Y-62238484D02*
X180124864Y-58917672D01*
X193249112Y-60511479D02*
X196252675Y-54371914D01*
X186650100Y-61526596D02*
X181318605Y-57249815D01*
X178417309Y-65669050D02*
G75*
G02*
X178418393Y-64768776I542J450137D01*
G01*
X193500013Y-53318751D02*
G75*
G02*
X194363639Y-53572959I431813J-127104D01*
G01*
D11*
X175000000Y-67000000D02*
X159000000Y-67000000D01*
X159000000Y-67000000D02*
X159000000Y-51000000D01*
X159000000Y-51000000D02*
X175000000Y-51000000D01*
X175000000Y-51000000D02*
X175000000Y-67000000D01*
G36*
X175000000Y-67000000D02*
G01*
X159000000Y-67000000D01*
X159000000Y-51000000D01*
X175000000Y-51000000D01*
X175000000Y-67000000D01*
G37*
X175000000Y-67000000D02*
X159000000Y-67000000D01*
X159000000Y-51000000D01*
X175000000Y-51000000D01*
X175000000Y-67000000D01*
D10*
X189967812Y-66254141D02*
X199498726Y-56855999D01*
X178678500Y-67704605D02*
G75*
G02*
X178528383Y-66816866I-75059J443869D01*
G01*
X189895483Y-65061135D02*
X183690006Y-55103644D01*
X189452902Y-65497548D02*
X178501634Y-63618602D01*
X191661838Y-65815874D02*
G75*
G02*
X191473698Y-66539654I-336621J-298841D01*
G01*
X191200210Y-66254013D02*
G75*
G02*
X190684767Y-66795848I-439301J-98183D01*
G01*
D11*
X137000000Y-60000000D02*
X121000000Y-60000000D01*
X121000000Y-60000000D02*
X121000000Y-44000000D01*
X121000000Y-44000000D02*
X137000000Y-44000000D01*
X137000000Y-44000000D02*
X137000000Y-60000000D01*
G36*
X137000000Y-60000000D02*
G01*
X121000000Y-60000000D01*
X121000000Y-44000000D01*
X137000000Y-44000000D01*
X137000000Y-60000000D01*
G37*
X137000000Y-60000000D02*
X121000000Y-60000000D01*
X121000000Y-44000000D01*
X137000000Y-44000000D01*
X137000000Y-60000000D01*
D10*
X190068656Y-64890370D02*
X191473466Y-52996998D01*
X187313113Y-60917386D02*
X182775458Y-55806089D01*
X191726214Y-64585146D02*
X191646764Y-64598582D01*
X191533456Y-65987297D02*
X191040540Y-65196362D01*
D11*
X146750000Y-122250000D02*
X130750000Y-122250000D01*
X130750000Y-122250000D02*
X130750000Y-106250000D01*
X130750000Y-106250000D02*
X146750000Y-106250000D01*
X146750000Y-106250000D02*
X146750000Y-122250000D01*
G36*
X146750000Y-122250000D02*
G01*
X130750000Y-122250000D01*
X130750000Y-106250000D01*
X146750000Y-106250000D01*
X146750000Y-122250000D01*
G37*
X146750000Y-122250000D02*
X130750000Y-122250000D01*
X130750000Y-106250000D01*
X146750000Y-106250000D01*
X146750000Y-122250000D01*
D10*
X190797445Y-66395374D02*
X190925668Y-65309631D01*
X190584025Y-66413443D02*
X190902088Y-65332883D01*
D11*
X156000000Y-65000000D02*
X140000000Y-65000000D01*
X140000000Y-65000000D02*
X140000000Y-49000000D01*
X140000000Y-49000000D02*
X156000000Y-49000000D01*
X156000000Y-49000000D02*
X156000000Y-65000000D01*
G36*
X156000000Y-65000000D02*
G01*
X140000000Y-65000000D01*
X140000000Y-49000000D01*
X156000000Y-49000000D01*
X156000000Y-65000000D01*
G37*
X156000000Y-65000000D02*
X140000000Y-65000000D01*
X140000000Y-49000000D01*
X156000000Y-49000000D01*
X156000000Y-65000000D01*
D10*
X190669915Y-59800000D02*
X190320672Y-52974034D01*
X191853171Y-65208825D02*
X191245085Y-64994662D01*
D11*
X118000000Y-84000000D02*
X102000000Y-84000000D01*
X102000000Y-84000000D02*
X102000000Y-68000000D01*
X102000000Y-68000000D02*
X118000000Y-68000000D01*
X118000000Y-68000000D02*
X118000000Y-84000000D01*
G36*
X118000000Y-84000000D02*
G01*
X102000000Y-84000000D01*
X102000000Y-68000000D01*
X118000000Y-68000000D01*
X118000000Y-84000000D01*
G37*
X118000000Y-84000000D02*
X102000000Y-84000000D01*
X102000000Y-68000000D01*
X118000000Y-68000000D01*
X118000000Y-84000000D01*
D10*
X178653871Y-62731301D02*
X178929064Y-61611433D01*
X198866622Y-56214965D02*
G75*
G02*
X199498726Y-56855999I316052J-320517D01*
G01*
X190029813Y-64928674D02*
X189434035Y-53019438D01*
X190138229Y-64821769D02*
X195443990Y-53976291D01*
X179687458Y-59704536D02*
G75*
G02*
X180124864Y-58917672I218703J393432D01*
G01*
X185674858Y-63032835D02*
X179228131Y-60762293D01*
M02*
